<svg width="48" height="48" viewBox="0 0 48 48" fill="none" xmlns="http://www.w3.org/2000/svg">
<path d="M41.3952 11.7649C40.8193 11.7649 40.2818 11.8032 39.7056 11.8032V9.84486C39.7056 9.38414 39.3214 9.00006 38.8608 9.00006C33.7152 9.00006 28.6847 9.99839 23.9615 11.9953C19.2384 9.99867 14.2463 9.00006 9.10074 9.00006C8.64002 9.00006 8.25594 9.38417 8.25594 9.84486V11.8032C7.71835 11.7649 7.14247 11.7649 6.56627 11.7649C6.10555 11.7649 5.72147 12.149 5.72147 12.6097V33.7681C5.72147 34.2288 6.10558 34.6129 6.56627 34.6129C12.4415 34.6129 18.2015 35.8032 23.6543 38.1074C23.7695 38.1457 23.8846 38.1842 23.9998 38.1842C24.115 38.1842 24.2302 38.1842 24.3454 38.1074C29.7601 35.8032 35.5198 34.6129 41.395 34.6129C41.8557 34.6129 42.2398 34.2674 42.2398 33.7681V12.6097C42.2398 12.149 41.8557 11.7649 41.395 11.7649H41.3952ZM23.1552 33.9217C18.8928 32.2706 14.4768 31.3489 9.9072 31.2338V10.6898C14.4769 10.8049 18.9312 11.7266 23.1552 13.4929V33.9217ZM38.0928 31.272C33.5232 31.3489 29.1072 32.2704 24.8448 33.96V13.4544C29.069 11.7264 33.5232 10.7664 38.0928 10.6512V31.272Z" fill="#0070F3"/>
<path d="M28.032 17.3329C28.1089 17.3329 28.1855 17.3329 28.2624 17.2946C30.4513 16.6418 32.6782 16.1811 34.944 15.9504C35.4048 15.9121 35.712 15.4897 35.6737 15.0288C35.6354 14.5681 35.213 14.2608 34.752 14.2991C32.4096 14.568 30.0672 15.0288 27.8016 15.7198C27.3792 15.835 27.1106 16.2957 27.2257 16.7567C27.3406 17.1025 27.6864 17.3329 28.032 17.3329V17.3329Z" fill="#0070F3"/>
<path d="M34.7904 18.3313C32.448 18.6002 30.1056 19.061 27.8016 19.752C27.3792 19.8672 27.1106 20.3279 27.2257 20.7889C27.3409 21.1344 27.6481 21.3648 28.0323 21.3648C28.1091 21.3648 28.1857 21.3648 28.2626 21.3265C30.4515 20.6737 32.6785 20.213 34.9443 19.9823C35.405 19.944 35.7122 19.5216 35.6739 19.0607C35.6354 18.6 35.2512 18.2544 34.7905 18.3313L34.7904 18.3313Z" fill="#0070F3"/>
<path d="M34.7904 22.3249C32.448 22.5938 30.1056 23.0546 27.8016 23.7456C27.3792 23.8608 27.1106 24.3215 27.2257 24.7825C27.3409 25.128 27.6481 25.3584 28.0323 25.3584C28.1091 25.3584 28.1857 25.3584 28.2626 25.3201C30.4515 24.6673 32.6785 24.2066 34.9443 23.9759C35.405 23.9376 35.7122 23.5152 35.6739 23.0543C35.6354 22.6321 35.2512 22.2866 34.7905 22.3249L34.7904 22.3249Z" fill="#0070F3"/>
<path d="M34.7904 26.3569C32.448 26.6258 30.1056 27.0866 27.8016 27.7776C27.3792 27.8928 27.1106 28.3535 27.2257 28.8145C27.3409 29.16 27.6481 29.3904 28.0323 29.3904C28.1091 29.3904 28.1857 29.3904 28.2626 29.3521C30.4515 28.6993 32.6785 28.2386 34.9443 28.0079C35.405 27.9696 35.7122 27.5472 35.6739 27.0863C35.6354 26.6256 35.2512 26.3186 34.7905 26.3569L34.7904 26.3569Z" fill="#0070F3"/>
<path d="M13.6704 25.2049C14.0928 25.3584 14.5921 25.1666 14.7456 24.7056C14.8608 24.3601 14.976 24.0911 15.0911 23.7839C15.5904 23.8608 16.0128 23.976 16.4353 24.0529C16.9346 24.168 17.4336 24.2832 18.0481 24.3984C18.2016 24.7439 18.317 25.1281 18.4705 25.5119C18.5857 25.8191 18.9312 26.0495 19.2384 26.0495C19.3536 26.0495 19.4305 26.0112 19.5457 25.9726C19.9681 25.8191 20.1601 25.3198 20.0064 24.8974C18.9695 22.2863 18.4705 20.827 17.3567 17.6782C17.2415 17.3709 16.9343 17.1406 16.5888 17.1023C16.2432 17.1023 15.936 17.2943 15.7822 17.6016C14.707 20.0208 14.1694 21.2881 13.0943 24.0912C13.0177 24.5522 13.2481 25.0129 13.6705 25.205L13.6704 25.2049ZM16.5121 20.2128C16.8193 21.0576 17.088 21.8256 17.3569 22.5552C17.1648 22.5169 16.9728 22.4783 16.781 22.44C16.4355 22.3632 16.0899 22.2866 15.6675 22.2097C15.9745 21.5186 16.2431 20.9042 16.5121 20.2128L16.5121 20.2128Z" fill="#0070F3"/>
</svg>
