<svg width="18" height="18" viewBox="0 0 18 18" fill="none" xmlns="http://www.w3.org/2000/svg">
<path d="M11 17.725V16.175C12.6167 15.7083 13.9375 14.8125 14.9625 13.4875C15.9875 12.1625 16.5 10.6583 16.5 8.97501C16.5 7.29167 15.9917 5.78334 14.975 4.45001C13.9583 3.11667 12.6333 2.22501 11 1.77501V0.225006C13.0667 0.691673 14.75 1.73751 16.05 3.36251C17.35 4.98751 18 6.85834 18 8.97501C18 11.0917 17.35 12.9625 16.05 14.5875C14.75 16.2125 13.0667 17.2583 11 17.725ZM0 12V6.00001H4L9 1.00001V17L4 12H0ZM10.5 13.2V4.77501C11.4 5.05834 12.125 5.59167 12.675 6.37501C13.225 7.15834 13.5 8.03334 13.5 9C13.5 9.98334 13.225 10.8583 12.675 11.625C12.125 12.3917 11.4 12.9167 10.5 13.2ZM7.5 4.80001L4.675 7.50001H1.5V10.5H4.675L7.5 13.225V4.80001Z" fill="#5C77FF"/>
</svg>
