<?xml version="1.0" encoding="utf-8"?>
<svg id="master-artboard" viewBox="0 0 1000 1000" version="1.1" xmlns="http://www.w3.org/2000/svg" x="0px" y="0px" style="enable-background:new 0 0 1400 980;" width="1000px" height="1000px"><defs><path id="text-path-0" d="M 778.8464965820312 213.4612274169922 A 100 18 0 0 1 988.3533935546875 213.4612274169922 A 100 18 0 0 1 778.8464965820312 213.4612274169922 Z" style="fill: none; stroke: red; stroke-width: 2;"/><path id="text-path-1" d="M 664.5464477539062 37.96122741699219 A 100 19 0 0 1 876.5812377929688 37.96122741699219 A 100 19 0 0 1 664.5464477539062 37.96122741699219" style="fill: none; stroke: red; stroke-width: 2;"/><path id="text-path-2" d="M 765.3650512695312 211.70851135253906 A 100 17 0 0 1 991.5017700195312 211.70851135253906 A 100 17 0 0 1 765.3650512695312 211.70851135253906" style="fill: none; stroke: red; stroke-width: 2;"/><path id="path-1" d="M 765.3650512695312 211.70851135253906 A 100 17 0 0 1 991.5017700195312 211.70851135253906 A 100 17 0 0 1 765.3650512695312 211.70851135253906" style="fill: none; stroke: red; stroke-width: 2;"/><style id="ee-google-fonts">@import url(https://fonts.googleapis.com/css?family=Alfa+Slab+One:400);</style></defs><rect id="ee-background" x="0" y="0" width="1000" height="1000" style="fill: white; fill-opacity: 0; pointer-events: none;"/>


<g transform="matrix(9.391670227050781, 0, 0, 9.391670227050781, -5621.436348957837, -406.10795575145147)"><g id="g-1" transform="matrix(1, 0, 0, 1, 0, 0)">
	<g id="g-2">
		<path class="st0" d="M652,46c27.6,0,50,22.4,50,50s-22.4,50-50,50s-50-22.4-50-50S624.4,46,652,46z" style="fill: rgb(10, 17, 103); paint-order: stroke; stroke: rgb(227, 112, 50); stroke-width: 5;"/>
	</g>
</g></g><path d="M 404.8403015136719 410.9800109863281 L 411.060302734375 410.9800109863281 L 409.30029296875 402.67999267578125 L 395.2903137207031 402.67999267578125 L 393.63031005859375 410.9800109863281 L 399.8503112792969 410.9800109863281 L 399.8503112792969 428 L 364.37030029296875 428 L 364.37030029296875 410.9800109863281 L 368.5202941894531 410.9800109863281 L 386.05029296875 347.2699890136719 L 423.8203125 347.2699890136719 L 441.36029052734375 410.9800109863281 L 445.51031494140625 410.9800109863281 L 445.51031494140625 428 L 404.8403015136719 428 L 404.8403015136719 410.9800109863281 M 397.5703125 391.67999267578125 L 407.12030029296875 391.67999267578125 L 402.86029052734375 371.0299987792969 L 401.830322265625 371.0299987792969 L 397.5703125 391.67999267578125 ZM 483.68487548828125 410.9800109863281 L 488.2548828125 410.9800109863281 L 488.2548828125 393.9700012207031 C 488.2548828125 391.6166687011719 487.7515563964844 389.91998291015625 486.744873046875 388.8800048828125 C 485.744873046875 387.8399963378906 484.2415466308594 387.32000732421875 482.23486328125 387.32000732421875 C 480.22821044921875 387.32000732421875 478.7248840332031 387.8399963378906 477.7248840332031 388.8800048828125 C 476.71820068359375 389.91998291015625 476.2148742675781 391.6166687011719 476.2148742675781 393.9700012207031 L 476.2148742675781 410.9800109863281 L 480.7848815917969 410.9800109863281 L 480.7848815917969 428 L 447.7848815917969 428 L 447.7848815917969 410.9800109863281 L 452.3548889160156 410.9800109863281 L 452.3548889160156 387.32000732421875 L 447.7848815917969 387.32000732421875 L 447.7848815917969 370.30999755859375 L 476.2148742675781 370.30999755859375 L 476.2148742675781 377.3599853515625 C 477.0482177734375 376.5333251953125 477.9815368652344 375.6166687011719 479.014892578125 374.6099853515625 C 480.05487060546875 373.6099853515625 481.2848815917969 372.6933288574219 482.70489501953125 371.8599853515625 C 484.11822509765625 371.0333251953125 485.7248840332031 370.32666015625 487.5248718261719 369.739990234375 C 489.32489013671875 369.1533203125 491.40155029296875 368.8599853515625 493.7548828125 368.8599853515625 C 499.42822265625 368.8599853515625 503.9048767089844 370.8833312988281 507.18487548828125 374.92999267578125 C 510.4715576171875 378.9766540527344 512.1148681640625 385.3233337402344 512.1148681640625 393.9700012207031 L 512.1148681640625 410.9800109863281 L 516.6848754882812 410.9800109863281 L 516.6848754882812 428 L 483.68487548828125 428 L 483.68487548828125 410.9800109863281 ZM 555.0670776367188 364.2900085449219 L 548.9470825195312 364.2900085449219 L 548.9470825195312 347.2699890136719 L 578.9371337890625 347.2699890136719 L 578.9371337890625 410.9800109863281 L 583.4970703125 410.9800109863281 L 583.4970703125 428 L 555.0670776367188 428 L 555.0670776367188 420.94000244140625 C 554.4470825195312 421.7733459472656 553.6171264648438 422.69000244140625 552.5770874023438 423.69000244140625 C 551.537109375 424.6966552734375 550.34375 425.61334228515625 548.9970703125 426.44000244140625 C 547.6504516601562 427.2733459472656 546.1270751953125 427.98333740234375 544.4271240234375 428.57000732421875 C 542.7337646484375 429.15667724609375 540.92041015625 429.45001220703125 538.9871215820312 429.45001220703125 C 531.7937622070312 429.45001220703125 526.450439453125 426.8033447265625 522.9570922851562 421.510009765625 C 519.4637451171875 416.22332763671875 517.7171020507812 408.7699890136719 517.7171020507812 399.1499938964844 C 517.7171020507812 389.53668212890625 519.4637451171875 382.0833435058594 522.9570922851562 376.7900085449219 C 526.450439453125 371.5033264160156 531.7937622070312 368.8599853515625 538.9871215820312 368.8599853515625 C 540.92041015625 368.8599853515625 542.7337646484375 369.1533203125 544.4271240234375 369.739990234375 C 546.1270751953125 370.32666015625 547.6504516601562 371.0333251953125 548.9970703125 371.8599853515625 C 550.34375 372.6933288574219 551.537109375 373.6099853515625 552.5770874023438 374.6099853515625 C 553.6171264648438 375.6166687011719 554.4470825195312 376.5333251953125 555.0670776367188 377.3599853515625 L 555.0670776367188 364.2900085449219 M 543.027099609375 404.3399963378906 C 543.027099609375 406.6933288574219 543.5304565429688 408.3900146484375 544.537109375 409.42999267578125 C 545.537109375 410.46331787109375 547.0404052734375 410.9800109863281 549.047119140625 410.9800109863281 C 551.0537719726562 410.9800109863281 552.5604248046875 410.46331787109375 553.5670776367188 409.42999267578125 C 554.5670776367188 408.3900146484375 555.0670776367188 406.6933288574219 555.0670776367188 404.3399963378906 L 555.0670776367188 393.9700012207031 C 555.0670776367188 391.6166687011719 554.5670776367188 389.91998291015625 553.5670776367188 388.8800048828125 C 552.5604248046875 387.8399963378906 551.0537719726562 387.32000732421875 549.047119140625 387.32000732421875 C 547.0404052734375 387.32000732421875 545.537109375 387.8399963378906 544.537109375 388.8800048828125 C 543.5304565429688 389.91998291015625 543.027099609375 391.6166687011719 543.027099609375 393.9700012207031 L 543.027099609375 404.3399963378906 ZM 664.129150390625 364.2900085449219 L 647.839111328125 385.25 L 665.6791381835938 410.9800109863281 L 669.8291015625 410.9800109863281 L 669.8291015625 428 L 638.9091186523438 428 L 622.5191040039062 399.57000732421875 L 622.5191040039062 428 L 587.2391357421875 428 L 587.2391357421875 410.9800109863281 L 593.4591064453125 410.9800109863281 L 593.4591064453125 364.2900085449219 L 587.2391357421875 364.2900085449219 L 587.2391357421875 347.2699890136719 L 622.5191040039062 347.2699890136719 L 622.5191040039062 375.17999267578125 L 641.5091552734375 347.2699890136719 L 668.2791137695312 347.2699890136719 L 668.2791137695312 364.2900085449219 L 664.129150390625 364.2900085449219 ZM 696.6004638671875 404.3399963378906 C 696.6004638671875 406.6933288574219 697.1004638671875 408.3900146484375 698.1004638671875 409.42999267578125 C 699.1071166992188 410.46331787109375 700.61376953125 410.9800109863281 702.6204223632812 410.9800109863281 C 704.6271362304688 410.9800109863281 706.1304321289062 410.46331787109375 707.1304321289062 409.42999267578125 C 708.1370849609375 408.3900146484375 708.6404418945312 406.6933288574219 708.6404418945312 404.3399963378906 L 708.6404418945312 387.32000732421875 L 703.0304565429688 387.32000732421875 L 703.0304565429688 370.30999755859375 L 732.5004272460938 370.30999755859375 L 732.5004272460938 410.9800109863281 L 737.0704345703125 410.9800109863281 L 737.0704345703125 428 L 708.6404418945312 428 L 708.6404418945312 420.94000244140625 C 707.80712890625 421.8399963378906 706.853759765625 422.77667236328125 705.7804565429688 423.75 C 704.7070922851562 424.7166748046875 703.48046875 425.61334228515625 702.1004638671875 426.44000244140625 C 700.7138061523438 427.2733459472656 699.1204223632812 427.98333740234375 697.3204345703125 428.57000732421875 C 695.527099609375 429.15667724609375 693.4537963867188 429.45001220703125 691.1004638671875 429.45001220703125 C 685.4271240234375 429.45001220703125 680.9471435546875 427.4266662597656 677.6604614257812 423.3800048828125 C 674.373779296875 419.3333435058594 672.73046875 412.9866638183594 672.73046875 404.3399963378906 L 672.73046875 387.32000732421875 L 668.1704711914062 387.32000732421875 L 668.1704711914062 370.30999755859375 L 696.6004638671875 370.30999755859375 L 696.6004638671875 404.3399963378906 ZM 739.9693603515625 370.30999755859375 L 768.3993530273438 370.30999755859375 L 768.3993530273438 377.1600036621094 L 769.4393920898438 377.4700012207031 C 769.9193725585938 376.4966735839844 770.5393676757812 375.49334716796875 771.2993774414062 374.4599914550781 C 772.0660400390625 373.41998291015625 773.002685546875 372.4866638183594 774.109375 371.6600036621094 C 775.2160034179688 370.82666015625 776.4760131835938 370.1499938964844 777.8893432617188 369.6300048828125 C 779.3093872070312 369.1166687011719 780.9193725585938 368.8599853515625 782.7193603515625 368.8599853515625 C 784.1727294921875 368.8599853515625 785.58935546875 368.96331787109375 786.9693603515625 369.16998291015625 C 788.3560180664062 369.3766784667969 789.7393798828125 369.75665283203125 791.119384765625 370.30999755859375 L 791.119384765625 388.260009765625 C 788.83935546875 387.8466796875 786.9193725585938 387.586669921875 785.359375 387.4800109863281 C 783.8060302734375 387.3733215332031 782.5093383789062 387.32000732421875 781.4693603515625 387.32000732421875 C 776.9027099609375 387.32000732421875 773.5827026367188 388.34332275390625 771.5093383789062 390.3900146484375 C 769.43603515625 392.42999267578125 768.3993530273438 395.94000244140625 768.3993530273438 400.9200134277344 L 768.3993530273438 410.9800109863281 L 777.83935546875 410.9800109863281 L 777.83935546875 428 L 739.9693603515625 428 L 739.9693603515625 410.9800109863281 L 744.5293579101562 410.9800109863281 L 744.5293579101562 387.32000732421875 L 739.9693603515625 387.32000732421875 L 739.9693603515625 370.30999755859375 ZM 822.454833984375 370.30999755859375 L 836.46484375 370.30999755859375 L 836.46484375 387.32000732421875 L 822.454833984375 387.32000732421875 L 822.454833984375 404.3399963378906 C 822.454833984375 406.6933288574219 822.954833984375 408.3900146484375 823.954833984375 409.42999267578125 C 824.9614868164062 410.46331787109375 826.4682006835938 410.9800109863281 828.474853515625 410.9800109863281 C 831.2415161132812 410.9800109863281 834.1115112304688 410.6700134277344 837.0848388671875 410.04998779296875 L 837.0848388671875 426.3399963378906 C 834.8715209960938 427.1666564941406 832.224853515625 427.8933410644531 829.1448364257812 428.5199890136719 C 826.0648193359375 429.1400146484375 822.7615356445312 429.45001220703125 819.23486328125 429.45001220703125 C 815.7081909179688 429.45001220703125 812.5781860351562 429.07000732421875 809.8448486328125 428.30999755859375 C 807.1115112304688 427.54998779296875 804.8115234375 426.2533264160156 802.94482421875 424.4200134277344 C 801.0781860351562 422.586669921875 799.6448364257812 420.1833190917969 798.6448364257812 417.2099914550781 C 797.63818359375 414.2366638183594 797.1348266601562 410.53668212890625 797.1348266601562 406.1099853515625 L 797.1348266601562 387.32000732421875 L 792.5748291015625 387.32000732421875 L 792.5748291015625 370.30999755859375 C 795.3414916992188 370.30999755859375 797.3448486328125 369.6000061035156 798.5848388671875 368.17999267578125 C 799.83154296875 366.760009765625 800.454833984375 364.9433288574219 800.454833984375 362.7300109863281 L 800.454833984375 358.05999755859375 L 822.454833984375 358.05999755859375 L 822.454833984375 370.30999755859375 Z" transform="matrix(1.7816722393035889, 0, 0, 1.7816722393035889, -574.9352416992188, -348.6129150390625)" style="fill: rgb(255, 102, 46); white-space: pre; color: rgb(51, 51, 51); stroke: rgb(61, 57, 16); paint-order: fill; fill-opacity: 1;"/><g transform="matrix(3.3149542808532715, 0, 0, 3.3149542808532715, 156.00503841005963, -1119.2967571373683)"><g id="_x31_1" transform="matrix(1, 0, 0, 1, 1.8474111129762605e-12, 4.618527782440651e-13)">
		<g id="blue_7_">
			<path d="M 144.600006 557.900024 H 159.400006 V 565.000024 H 144.600006 V 557.900024 Z" class="st14" style="fill: rgb(85, 183, 197);"/>
			<path d="M 144.600006 546.5 H 159.400006 V 553.6 H 144.600006 V 546.5 Z" class="st14" style="fill: rgb(85, 183, 197);"/>
			<path d="M 144.600006 535 H 159.400006 V 542.1 H 144.600006 V 535 Z" class="st14" style="fill: rgb(85, 183, 197);"/>
			<path d="M 144.600006 523.5 H 159.400006 V 530.6 H 144.600006 V 523.5 Z" class="st14" style="fill: rgb(85, 183, 197);"/>
			<path d="M 144.600006 512.099976 H 159.400006 V 519.199975 H 144.600006 V 512.099976 Z" class="st14" style="fill: rgb(85, 183, 197);"/>
			<path d="M 144.600006 500.600006 H 159.400006 V 507.700006 H 144.600006 V 500.600006 Z" class="st14" style="fill: rgb(85, 183, 197);"/>
			<path d="M 144.600006 489.100006 H 159.400006 V 496.200006 H 144.600006 V 489.100006 Z" class="st14" style="fill: rgb(85, 183, 197);"/>
			<path d="M 144.600006 477.700012 H 159.400006 V 484.800012 H 144.600006 V 477.700012 Z" class="st14" style="fill: rgb(85, 183, 197);"/>
		</g>
		<g id="yellow_7_">
			<path d="M 62 557.900024 H 76.8 V 565.000024 H 62 V 557.900024 Z" class="st5" style="fill: rgb(239, 73, 57);"/>
			<path d="M 62 546.5 H 76.8 V 553.6 H 62 V 546.5 Z" class="st5" style="fill: rgb(239, 73, 57);"/>
			<path d="M 62 535 H 76.8 V 542.1 H 62 V 535 Z" class="st5" style="fill: rgb(239, 73, 57);"/>
			<path d="M 62 523.5 H 76.8 V 530.6 H 62 V 523.5 Z" class="st5" style="fill: rgb(239, 73, 57);"/>
		</g>
		<g id="orange_6_">
			<path d="M 89.5 557.900024 H 104.3 V 565.000024 H 89.5 V 557.900024 Z" class="st8" style="fill: rgb(240, 95, 48);"/>
			<path d="M 89.5 546.5 H 104.3 V 553.6 H 89.5 V 546.5 Z" class="st8" style="fill: rgb(240, 95, 48);"/>
			<path d="M 89.5 535 H 104.3 V 542.1 H 89.5 V 535 Z" class="st8" style="fill: rgb(240, 95, 48);"/>
			<path d="M 89.5 523.5 H 104.3 V 530.6 H 89.5 V 523.5 Z" class="st8" style="fill: rgb(240, 95, 48);"/>
			<path d="M 89.5 512.099976 H 104.3 V 519.199975 H 89.5 V 512.099976 Z" class="st8" style="fill: rgb(240, 95, 48);"/>
		</g>
		<g id="red_5_">
			<path d="M 117 557.900024 H 131.8 V 565.000024 H 117 V 557.900024 Z" class="st11" style="fill: rgb(246, 142, 41);"/>
			<path d="M 117 546.5 H 131.8 V 553.6 H 117 V 546.5 Z" class="st11" style="fill: rgb(246, 142, 41);"/>
			<path d="M 117 535 H 131.8 V 542.1 H 117 V 535 Z" class="st11" style="fill: rgb(246, 142, 41);"/>
			<path d="M 117 523.5 H 131.8 V 530.6 H 117 V 523.5 Z" class="st11" style="fill: rgb(246, 142, 41);"/>
			<path d="M 117 512.099976 H 131.8 V 519.199975 H 117 V 512.099976 Z" class="st11" style="fill: rgb(246, 142, 41);"/>
			<path d="M 117 500.600006 H 131.8 V 507.700006 H 117 V 500.600006 Z" class="st11" style="fill: rgb(246, 142, 41);"/>
		</g>
		<g id="dark_red_5_">
			<path d="M 34.400002 557.900024 H 49.200002 V 565.000024 H 34.400002 V 557.900024 Z" class="st24" style="fill: rgb(170, 46, 41);"/>
			<path d="M 34.400002 546.5 H 49.200002 V 553.6 H 34.400002 V 546.5 Z" class="st24" style="fill: rgb(170, 46, 41);"/>
		</g>
	</g></g></svg>